<svg width="512" height="512" version="1.1" viewBox="0 0 135.47 135.47" xml:space="preserve" xmlns="http://www.w3.org/2000/svg" xmlns:xlink="http://www.w3.org/1999/xlink"><defs><style>.cls-1{fill:none;}.cls-2{fill:#fff;}.cls-3{fill:#fa0;}.cls-4{fill:#aaa;}.cls-5{fill:#55f;}.cls-6{fill:#5f5;}.cls-7{fill:#67cbdf;}.cls-8{fill:#f55;}.cls-9{fill:#f5f;}.cls-10{fill:#ff5;}.cls-11{fill:#444;}</style><linearGradient id="linearGradient5779-3" x1="203.2" x2="203.2" y2="135.47" gradientTransform="translate(-135.47)" gradientUnits="userSpaceOnUse"><stop stop-color="#0fd62a" offset="0"/><stop stop-color="#0ca721" offset="1"/></linearGradient></defs><circle cx="67.733" cy="67.733" r="67.733" fill="url(#linearGradient5779-3)" stroke-width="8.4667"/><g fill="#fff" stroke-width="2.6512" aria-label="λ"><path d="m89.13 108.99q-6.4689 0-9.3322-3.1814-2.8633-3.2875-4.6661-8.5899l-4.5601-14.104q-1.3786-4.1359-2.9693-8.802-1.5907-4.6661-1.9089-9.0141h-0.31814q-0.31814 4.6661-1.2726 8.5899-0.84838 3.8177-2.3331 8.908l-7.1052 25.133h-17.286l20.891-57.478-1.1665-3.3935q-1.6968-4.9843-4.8782-6.2568-3.0754-1.2726-7.2113-1.2726-1.8028 0-3.2875 0.2121-1.4847 0.2121-2.5452 0.42419v-12.514q1.4847-0.31814 3.7117-0.53024 2.227-0.31814 4.8782-0.31814 6.0447 0 10.393 1.3786t7.4234 4.8782q3.1814 3.4996 5.6205 9.9685l15.801 42.207q1.6968 4.348 2.7572 6.681 1.1665 2.227 2.227 3.0754 1.1665 0.74234 2.6512 0.74234 1.1665 0 1.9089-0.10605 0.74234-0.2121 1.6968-0.42419v12.196q-1.2726 0.63629-4.2419 1.0605-2.8633 0.53024-4.8782 0.53024z"/></g></svg>
